PathFileType	4	(X/Y/Z)	RBDS023static.trc
DataRate	CameraRate	NumFrames	NumMarkers	Units	OrigDataRate	OrigDataStartFrame	OrigNumFrames
150.000000	150.000000	4	48	mm	150.000000	18	150
Frame#	Time	L.Ankle			L.Ankle.Medial			L.ASIS			L.GTR			L.Heel.Bottom			L.Heel.Lateral			L.Heel.Top			L.HF			L.Iliac.Crest			L.Knee			L.Knee.Medial			L.MT1			L.MT2			L.MT5			L.PSIS			L.Shank.Bottom.Lateral			L.Shank.Bottom.Medial			L.Shank.Top.Lateral			L.Shank.Top.Medial			L.Thigh.Bottom.Lateral			L.Thigh.Bottom.Medial			L.Thigh.Top.Lateral			L.Thigh.Top.Medial			L.TT			R.Ankle			R.Ankle.Medial			R.ASIS			R.GTR			R.Heel.Bottom			R.Heel.Lateral			R.Heel.Top			R.HF			R.Iliac.Crest			R.Knee			R.Knee.Medial			R.MT1			R.MT2			R.MT5			R.PSIS			R.Shank.Bottom.Lateral			R.Shank.Bottom.Medial			R.Shank.Top.Lateral			R.Shank.Top.Medial			R.Thigh.Bottom.Lateral			R.Thigh.Bottom.Medial			R.Thigh.Top.Lateral			R.Thigh.Top.Medial			R.TT			
		X1	Y1	Z1	X2	Y2	Z2	X3	Y3	Z3	X4	Y4	Z4	X5	Y5	Z5	X6	Y6	Z6	X7	Y7	Z7	X8	Y8	Z8	X9	Y9	Z9	X10	Y10	Z10	X11	Y11	Z11	X12	Y12	Z12	X13	Y13	Z13	X14	Y14	Z14	X15	Y15	Z15	X16	Y16	Z16	X17	Y17	Z17	X18	Y18	Z18	X19	Y19	Z19	X20	Y20	Z20	X21	Y21	Z21	X22	Y22	Z22	X23	Y23	Z23	X24	Y24	Z24	X25	Y25	Z25	X26	Y26	Z26	X27	Y27	Z27	X28	Y28	Z28	X29	Y29	Z29	X30	Y30	Z30	X31	Y31	Z31	X32	Y32	Z32	X33	Y33	Z33	X34	Y34	Z34	X35	Y35	Z35	X36	Y36	Z36	X37	Y37	Z37	X38	Y38	Z38	X39	Y39	Z39	X40	Y40	Z40	X41	Y41	Z41	X42	Y42	Z42	X43	Y43	Z43	X44	Y44	Z44	X45	Y45	Z45	X46	Y46	Z46	X47	Y47	Z47	X48	Y48	Z48	

19	0.12	708.8644409179688	102.7174682617188	1034.661376953125	735.043701171875	121.9958724975586	1117.479125976563	831.1671752929688	1063.973266601563	1125.991821289063	766.6922607421875	977.1990966796875	1063.176513671875	639.439697265625	41.34430694580078	1077.96240234375	668.7739868164063	61.48993682861328	1039.521484375	649.908203125	87.68447875976563	1080.199584960938	712.6881713867188	481.4671630859375	1034.040649414063	750.0579223632813	1126.275146484375	1073.915161132813	724.9411010742188	553.180419921875	1046.444091796875	716.5628051757813	529.212890625	1164.448120117188	860.6648559570313	53.49448013305664	1126.323364257813	872.4859008789063	69.56230163574219	1082.8857421875	834.9191284179688	45.14894485473633	1010.447448730469	646.9613037109375	1079.926025390625	1174.159301757813	714.4175415039063	178.8596954345703	1030.470703125	672.0950927734375	171.4818878173828	1058.315551757813	697.5748291015625	257.9882202148438	1019.575439453125	655.3291015625	254.7609405517578	1050.714599609375	735.046142578125	713.1317138671875	1031.607177734375	674.0531005859375	714.1162719726563	1069.580932617188	734.413330078125	823.393798828125	1034.018310546875	679.0802001953125	824.2955322265625	1073.974975585938	771.6666870117188	462.8193969726563	1081.669555664063	698.5224609375	105.0292892456055	1420.186645507813	731.3256225585938	123.0939254760742	1340.009887695313	826.179443359375	1068.050170898438	1341.468627929688	746.9723510742188	970.4603271484375	1403.087158203125	632.3385009765625	40.69054412841797	1373.8203125	662.1419677734375	58.48104476928711	1416.953491210938	642.5385131835938	87.88066864013672	1373.42138671875	725.7363891601563	492.9564208984375	1416.855346679688	739.7183837890625	1139.864990234375	1380.310302734375	727.3221435546875	558.9138793945313	1409.976684570313	741.8424682617188	538.7870483398438	1291.802856445313	854.322021484375	53.93358612060547	1331.202392578125	862.9651489257813	71.02828216552734	1376.11669921875	829.0361938476563	47.39684677124023	1447.19482421875	644.5381469726563	1086.095458984375	1282.889892578125	708.2867431640625	185.6296997070313	1426.372436523438	662.1710815429688	184.723876953125	1395.2705078125	697.9800415039063	265.6130065917969	1437.28173828125	653.5868530273438	264.0489196777344	1406.282836914063	715.9531860351563	681.4375	1418.5048828125	666.908935546875	676.005859375	1363.816040039063	704.7722778320313	790.5243530273438	1413.549438476563	660.0977172851563	785.5941162109375	1360.8642578125	778.6541748046875	463.7731018066406	1371.978149414063	
20	0.1266666666666667	708.8724365234375	102.7119598388672	1034.66015625	735.05517578125	122.0074234008789	1117.47705078125	831.180419921875	1063.981567382813	1125.991455078125	766.707763671875	977.1986083984375	1063.186767578125	639.439208984375	41.35073471069336	1077.973510742188	668.7637329101563	61.49621963500977	1039.523315429688	649.9091186523438	87.68206024169922	1080.199096679688	712.6946411132813	481.4681701660156	1034.035034179688	750.0908813476563	1126.291748046875	1073.92041015625	724.971923828125	553.1814575195313	1046.446166992188	716.5729370117188	529.2208251953125	1164.448486328125	860.66552734375	53.4898681640625	1126.323364257813	872.4839477539063	69.57274627685547	1082.888061523438	834.9216918945313	45.14958953857422	1010.442810058594	646.9732055664063	1079.932739257813	1174.148315429688	714.4197387695313	178.8532104492188	1030.472534179688	672.0968627929688	171.4878234863281	1058.31591796875	697.578125	257.9945373535156	1019.571472167969	655.3289794921875	254.7623138427734	1050.712646484375	735.0514526367188	713.144775390625	1031.604736328125	674.062744140625	714.1163330078125	1069.576782226563	734.4259033203125	823.3978271484375	1034.015625	679.0921020507813	824.29345703125	1073.989868164063	771.6849975585938	462.8263244628906	1081.666137695313	698.5220336914063	105.0284957885742	1420.177612304688	731.3365478515625	123.0860595703125	1340.017456054688	826.1785888671875	1068.055908203125	1341.485961914063	746.9766235351563	970.4561157226563	1403.085083007813	632.32763671875	40.69679641723633	1373.82373046875	662.1361694335938	58.48556900024414	1416.954467773438	642.536376953125	87.89386749267578	1373.421508789063	725.732666015625	492.9620666503906	1416.840454101563	739.6989135742188	1139.857177734375	1380.309448242188	727.311279296875	558.9111328125	1409.975708007813	741.848876953125	538.7894897460938	1291.802978515625	854.3129272460938	53.93077850341797	1331.203002929688	862.9691162109375	71.03077697753906	1376.11962890625	829.0361938476563	47.40589904785156	1447.188842773438	644.5471801757813	1086.087768554688	1282.890747070313	708.2869262695313	185.6382904052734	1426.36572265625	662.1727905273438	184.7192535400391	1395.269775390625	697.9766845703125	265.6201477050781	1437.28662109375	653.5901489257813	264.0536804199219	1406.283325195313	715.9507446289063	681.4364624023438	1418.504760742188	666.9117431640625	676.0157470703125	1363.812866210938	704.7688598632813	790.520751953125	1413.5537109375	660.1033935546875	785.593994140625	1360.864624023438	778.6494140625	463.7734985351563	1371.978637695313	
21	0.1333333333333333	708.871826171875	102.7189559936523	1034.659912109375	735.05224609375	121.9996185302734	1117.47021484375	831.2000122070313	1063.98486328125	1126.000854492188	766.7161865234375	977.1971435546875	1063.18408203125	639.43603515625	41.35007858276367	1077.961181640625	668.7777099609375	61.48654937744141	1039.52783203125	649.9073486328125	87.68702697753906	1080.206298828125	712.7144165039063	481.4718322753906	1034.03955078125	750.111572265625	1126.290405273438	1073.923217773438	724.9653930664063	553.1876831054688	1046.457885742188	716.579345703125	529.216552734375	1164.440795898438	860.6820068359375	53.49254608154297	1126.322998046875	872.4872436523438	69.57109832763672	1082.888916015625	834.9312744140625	45.14809036254883	1010.442810058594	646.9955444335938	1079.931274414063	1174.15087890625	714.435791015625	178.8644561767578	1030.479125976563	672.0999755859375	171.4934539794922	1058.311401367188	697.5831298828125	257.9972839355469	1019.571166992188	655.3361206054688	254.762939453125	1050.710205078125	735.0609741210938	713.1394653320313	1031.613891601563	674.0750122070313	714.1182861328125	1069.579467773438	734.4398803710938	823.3970336914063	1034.020141601563	679.1124267578125	824.3043823242188	1073.982543945313	771.6949462890625	462.8265075683594	1081.662841796875	698.5272216796875	105.0300445556641	1420.179931640625	731.3432006835938	123.0808563232422	1340.017822265625	826.1875	1068.049438476563	1341.48388671875	746.9799194335938	970.4694213867188	1403.092895507813	632.335693359375	40.70239639282227	1373.816040039063	662.1410522460938	58.48833465576172	1416.946166992188	642.5421142578125	87.88960266113281	1373.423583984375	725.7413330078125	492.9671325683594	1416.851684570313	739.6848754882813	1139.8427734375	1380.314086914063	727.3175048828125	558.910888671875	1409.974365234375	741.8491821289063	538.7859497070313	1291.806274414063	854.3167114257813	53.92983245849609	1331.206787109375	862.9644775390625	71.02963256835938	1376.11865234375	829.0328979492188	47.40766525268555	1447.19775390625	644.5510864257813	1086.091552734375	1282.87548828125	708.2935180664063	185.6371459960938	1426.367919921875	662.1722412109375	184.7230377197266	1395.266723632813	697.979736328125	265.6190795898438	1437.292236328125	653.590576171875	264.0541076660156	1406.276733398438	715.9454345703125	681.4403686523438	1418.505126953125	666.9166259765625	676.0196533203125	1363.81298828125	704.76806640625	790.52587890625	1413.548828125	660.1065063476563	785.5980224609375	1360.8603515625	778.6563720703125	463.7784729003906	1371.982177734375	
22	0.14	708.8662719726563	102.7219696044922	1034.666259765625	735.0496215820313	121.998664855957	1117.478759765625	831.2069702148438	1063.972045898438	1126.013671875	766.7503662109375	977.1980590820313	1063.189697265625	639.43798828125	41.35089874267578	1077.970092773438	668.7761840820313	61.48624038696289	1039.532470703125	649.9055786132813	87.69333648681641	1080.202270507813	712.7206420898438	481.470947265625	1034.0439453125	750.1406860351563	1126.294677734375	1073.928344726563	724.99853515625	553.1934204101563	1046.44921875	716.5850830078125	529.2147216796875	1164.440795898438	860.6798095703125	53.49525833129883	1126.32080078125	872.4871215820313	69.57163238525391	1082.8876953125	834.9293212890625	45.14411163330078	1010.446044921875	647.0037231445313	1079.938354492188	1174.146240234375	714.430419921875	178.8607330322266	1030.47607421875	672.1099853515625	171.4846343994141	1058.316162109375	697.590576171875	257.9956970214844	1019.573974609375	655.3414916992188	254.7688293457031	1050.701293945313	735.0877685546875	713.1246948242188	1031.622680664063	674.0873413085938	714.1292114257813	1069.57275390625	734.4584350585938	823.3984985351563	1034.021728515625	679.1190185546875	824.3018798828125	1073.986083984375	771.7023315429688	462.8203430175781	1081.66552734375	698.5265502929688	105.0372695922852	1420.180297851563	731.3562622070313	123.0819625854492	1340.0244140625	826.1878051757813	1068.054077148438	1341.495361328125	746.9835205078125	970.45458984375	1403.082885742188	632.335205078125	40.68947982788086	1373.82275390625	662.136962890625	58.48609924316406	1416.950317382813	642.5424194335938	87.89374542236328	1373.42138671875	725.7320556640625	492.9614868164063	1416.84765625	739.6639404296875	1139.825073242188	1380.309814453125	727.3098754882813	558.924072265625	1409.972900390625	741.8701782226563	538.7899169921875	1291.806274414063	854.325439453125	53.92940139770508	1331.20361328125	862.9686889648438	71.0289306640625	1376.125	829.04638671875	47.39296340942383	1447.188720703125	644.5554809570313	1086.088989257813	1282.8701171875	708.2880859375	185.6392211914063	1426.371704101563	662.1668090820313	184.7220916748047	1395.267211914063	697.985595703125	265.6116027832031	1437.288330078125	653.5823364257813	264.0534057617188	1406.268798828125	715.9422607421875	681.44677734375	1418.515869140625	666.9114990234375	676.0255737304688	1363.816040039063	704.7588500976563	790.5300903320313	1413.557495117188	660.1063842773438	785.5929565429688	1360.846313476563	778.65625	463.7722473144531	1371.979370117188	
